# xmcd
#
# Track frame offsets:
#	150
#	14383
#	25307
#	41863
#	57970
#	74435
#	92386
#	105116
#	120900
#	136452
#	151721
#	168203
#	183126
#	201820
#	216252
#	232590
#	249798
#	263819
#	274482
#	286873
#	308740
#
# Disc length: 4320 seconds
#
# Revision: 1
# Processed by: cddbd v1.5.2PL0 Copyright (c) Steve Scherf et al.
# Submitted via: audiograbber 1.83.01
#
DISCID=0e10de15
DTITLE=Peter Tschernig - Mein bester Kumpel - Die größten Hits aus 25 Jahren
DYEAR=2004
DGENRE=DDR
TTITLE0=Peter Tschernig - Mein Bester Kumpel
TTITLE1=Peter Tschernig - Ein Freund, Mein Freund
TTITLE2=Peter Tschernig - Zwischen Tür Und Angel
TTITLE3=Peter Tschernig - Schlaf Schön, Rosmarie
TTITLE4=Peter Tschernig - Jeden Vierten Sonntag
TTITLE5=Peter Tschernig - Bewahr' Dir Die Träume Der Kindheit
TTITLE6=Peter Tschernig - Gut Dreißig Jahre Bin Ich Alt
TTITLE7=Peter Tschernig - Nicht Alles, Was Man Glänzen Sieht
TTITLE8=Peter Tschernig - Irgend Ein Haken Ist Immer Dabei 
TTITLE9=Peter Tschernig - Du Hast Gewonnen
TTITLE10=Peter Tschernig - Immer, Wenn Ich Lüge 
TTITLE11=Peter Tschernig - Taxi-408
TTITLE12=Peter Tschernig - In Dem Land, In Dem Er Jetzt Wohnt
TTITLE13=Peter Tschernig - Wir Beide
TTITLE14=Peter Tschernig - Zwischen Himmel Und Erde
TTITLE15=Peter Tschernig - Typen, So Wie Der
TTITLE16=Peter Tschernig - Wir Sitzen Alle Im Selben Boot
TTITLE17=Peter Tschernig - Country-music
TTITLE18=Peter Tschernig - Ring Of Fire
TTITLE19=Peter Tschernig - Die Aktuelle Single:was Willst Du Denn Da Oben Ohne 
TTITLE19=Mich
TTITLE20=Peter Tschernig - Alle 2 Sekunden
EXTD=
EXTT0=1987
EXTT1=1983
EXTT2=1989
EXTT3=1983
EXTT4=1987
EXTT5=1987
EXTT6=1983
EXTT7=1987
EXTT8=1987
EXTT9=1987
EXTT10=1987
EXTT11=1983
EXTT12=1994
EXTT13=1994
EXTT14=1994
EXTT15=1994
EXTT16=1994
EXTT17=1994
EXTT18=1987
EXTT19=2004
EXTT20=1994
PLAYORDER=
